<svg width="512" height="512" viewBox="0 0 512 512" fill="none" xmlns="http://www.w3.org/2000/svg">
<circle cx="256.5" cy="226.5" r="165.5" fill="#51EDD6"/>
<path fill-rule="evenodd" clip-rule="evenodd" d="M412.198 167.258C380.62 219.745 322.044 255 255 255C189.288 255 131.709 221.131 99.7145 170.364C94.064 187.042 91 204.913 91 223.5C91 314.903 165.097 389 256.5 389C347.903 389 422 314.903 422 223.5C422 203.754 418.542 184.816 412.198 167.258Z" fill="#01507E" fill-opacity="0.09"/>
<path fill-rule="evenodd" clip-rule="evenodd" d="M407.997 159.772C389.138 229.167 328.004 280 255.5 280C183.979 280 123.522 230.537 103.793 162.584C95.5528 182.25 91 203.843 91 226.5C91 317.903 165.097 392 256.5 392C347.903 392 422 317.903 422 226.5C422 202.758 417.001 180.183 407.997 159.772Z" fill="#01507C" fill-opacity="0.12"/>
<circle cx="256.5" cy="226.5" r="154.5" stroke="#01507E" stroke-width="22"/>
<circle cx="333" cy="183" r="30" fill="#01507C"/>
<path d="M351.708 183.799C353.798 181.821 354.216 176.183 352.828 173.447C351.44 170.71 350.525 169.289 348.132 167.327C346.184 165.73 344.271 165 340.931 165C336 165 332 170.5 332 176C332 182.075 337.175 187 343.558 187C346.738 187 349.618 185.778 351.708 183.799Z" fill="white"/>
<circle cx="179" cy="183" r="30" fill="#01507C"/>
<path d="M197.708 183.799C199.798 181.821 200.216 176.183 198.828 173.447C197.44 170.71 196.525 169.289 194.132 167.327C192.184 165.73 190.271 165 186.931 165C182 165 178 170.5 178 176C178 182.075 183.175 187 189.558 187C192.738 187 195.618 185.778 197.708 183.799Z" fill="white"/>
<path d="M221 203.439C221 193.808 229.059 186 239 186H273C282.941 186 291 193.808 291 203.439C291 258.854 221 258.854 221 203.439Z" fill="#01507C"/>
<path d="M235 195C235 186 235 186 244 186H268C277 186 277 186 277 195C277 199.971 272.971 204 268 204H244C239.029 204 235 199.971 235 195Z" fill="white"/>
<path d="M237 223C237 218.582 240.582 215 245 215H267C271.418 215 275 218.582 275 223C275 227 268 234 259 234H253.5C247 234 237 228.5 237 223Z" fill="#FFAB7A"/>
<circle cx="154" cy="232" r="12" fill="#FFAB7A"/>
<circle cx="357" cy="232" r="12" fill="#FFAB7A"/>
<path fill-rule="evenodd" clip-rule="evenodd" d="M265.172 94.2819C245.409 92.9954 225.608 96.122 207.204 103.435C188.799 110.748 172.252 122.064 158.762 136.563C146.44 149.807 136.95 165.403 130.851 182.395C129.889 185.075 127.014 186.597 124.29 185.768C121.538 184.93 119.982 182.014 120.935 179.3C127.022 161.968 137.385 143.39 150.708 129.07C165.31 113.377 183.221 101.128 203.142 93.2124C223.063 85.2968 244.496 81.9127 265.886 83.3051C285.451 84.5787 304.502 89.8192 322.019 98.7704C324.727 100.154 325.657 103.527 324.15 106.168C322.662 108.774 319.358 109.686 316.68 108.333C300.648 100.237 283.131 95.4509 265.172 94.2819Z" fill="white"/>
<path d="M431.5 124V146" stroke="#4FEED6" stroke-width="10" stroke-linecap="round"/>
<path d="M443 135L421 135" stroke="#4FEED6" stroke-width="10" stroke-linecap="round"/>
<circle cx="448" cy="118" r="5" fill="#4FEED6"/>
<path d="M34 226H50" stroke="#4FEED6" stroke-width="8" stroke-linecap="round"/>
<path d="M42 218L42 234" stroke="#4FEED6" stroke-width="8" stroke-linecap="round"/>
<circle cx="55" cy="207" r="5" fill="#4FEED6"/>
<circle cx="69" cy="229" r="5" fill="#4FEED6"/>
<path d="M166.969 290.205C176.874 286.109 187.49 284.001 198.212 284.001C208.933 284.001 219.549 286.109 229.455 290.205C246.581 297.287 244.768 303.94 258.458 292.816C275.311 279.123 300.093 281.66 313.81 298.484C316.413 301.676 320.674 300.203 322.301 298.272C336.135 281.545 360.934 279.179 377.691 292.99C381.171 295.857 384.049 302.161 386.52 307.076C388.494 311.004 394.13 310.022 395.784 307.076C413.325 275.834 460.533 277.458 475.041 311.807L508.899 391.972C517.341 411.96 507.953 434.995 487.93 443.423C471.198 450.465 452.335 445.078 441.66 431.454C437.299 425.888 429.236 427.851 426.414 431.454C415.696 445.134 396.735 450.496 379.978 443.352C377.923 442.476 375.981 441.446 374.16 440.281C357.462 451.557 334.604 448.421 321.635 432.516C320.182 430.797 315.755 429.815 313.81 432.516C300.093 449.34 275.311 451.877 258.458 438.184C244.768 427.06 246.581 433.713 229.455 440.795C219.549 444.891 208.933 446.999 198.212 446.999C187.49 446.999 176.874 444.891 166.969 440.795C162.01 438.744 157.278 436.216 152.837 433.252C140.669 425.132 116.079 427.919 105.193 436.689C83.7221 453.985 48.5339 447.996 36.5023 419.139L3.03101 338.861C-5.31889 318.835 4.17525 295.843 24.2367 287.508C41.4057 280.374 60.7504 286.287 71.2057 300.694C74.4124 305.112 82.1433 305.603 85.7049 300.694C96.3679 285.997 116.211 280.213 133.498 287.861C152.96 296.473 146.124 298.824 166.969 290.205Z" fill="#01507C"/>
<path fill-rule="evenodd" clip-rule="evenodd" d="M294.378 314.544C289.502 308.544 280.684 307.632 274.684 312.508C268.683 317.384 267.772 326.202 272.648 332.202L298.33 363.808C299.226 364.91 299.226 366.489 298.33 367.592L272.648 399.197C267.772 405.198 268.683 414.015 274.684 418.891C280.684 423.767 289.502 422.856 294.378 416.855L315.579 390.765C316.779 389.287 319.035 389.287 320.235 390.765L341.436 416.855C346.313 422.856 355.13 423.767 361.13 418.891C367.131 414.015 368.043 405.198 363.167 399.197L337.546 367.668C336.645 366.56 336.651 364.97 337.559 363.868L363.596 332.278C368.514 326.311 367.664 317.488 361.697 312.57C355.731 307.652 346.907 308.503 341.989 314.469L320.315 340.766C319.11 342.228 316.867 342.221 315.672 340.75L294.378 314.544ZM198.509 337.373C194.802 337.373 191.13 338.105 187.704 339.526C184.277 340.948 181.163 343.033 178.538 345.662C175.913 348.291 173.829 351.414 172.407 354.852C170.986 358.291 170.253 361.977 170.253 365.7C170.253 369.423 170.986 373.109 172.407 376.547C173.829 379.986 175.913 383.109 178.538 385.738C181.163 388.367 184.277 390.452 187.704 391.873C191.13 393.295 194.802 394.026 198.509 394.026C202.217 394.026 205.888 393.295 209.315 391.873C212.741 390.452 215.856 388.367 218.481 385.738C221.106 383.109 223.189 379.986 224.611 376.547C226.033 373.109 226.765 369.423 226.765 365.7C226.765 361.977 226.033 358.291 224.611 354.852C223.189 351.414 221.106 348.291 218.481 345.662C215.856 343.033 212.741 340.948 209.315 339.526C205.888 338.105 202.217 337.373 198.509 337.373ZM176.974 313.664C183.801 310.832 191.119 309.373 198.509 309.373C205.9 309.373 213.218 310.832 220.045 313.664C226.872 316.497 233.074 320.648 238.297 325.879C243.519 331.111 247.661 337.32 250.486 344.152C253.312 350.984 254.765 358.306 254.765 365.7C254.765 373.093 253.312 380.415 250.486 387.247C247.661 394.08 243.519 400.289 238.297 405.52C233.074 410.752 226.872 414.903 220.045 417.735C213.218 420.568 205.9 422.026 198.509 422.026C191.119 422.026 183.801 420.568 176.974 417.735C170.147 414.903 163.945 410.752 158.722 405.52C153.499 400.289 149.358 394.08 146.533 387.247C143.707 380.415 142.253 373.093 142.253 365.7C142.253 358.306 143.707 350.984 146.533 344.152C149.358 337.32 153.499 331.111 158.722 325.879C163.945 320.648 170.147 316.497 176.974 313.664ZM34.4319 310.937C41.572 307.97 49.7653 311.353 52.7322 318.494L75.3587 372.947C76.3704 375.381 79.8055 375.42 80.8725 373.009L105.126 318.2C108.255 311.13 116.523 307.934 123.593 311.063C130.664 314.192 133.86 322.46 130.731 329.531L95.1571 409.922C88.3998 425.193 66.6443 424.945 60.2367 409.524L26.8756 329.238C23.9087 322.097 27.2918 313.904 34.4319 310.937ZM416.648 398.371C415.446 398.371 414.36 399.088 413.888 400.194L408.419 413.024C405.386 420.137 397.162 423.445 390.05 420.413C382.937 417.38 379.629 409.156 382.662 402.044L416.849 321.85C423.43 306.414 445.329 306.464 451.839 321.93L485.585 402.103C488.585 409.229 485.24 417.438 478.113 420.438C470.987 423.437 462.778 420.092 459.778 412.965L454.408 400.207C453.94 399.094 452.85 398.371 451.643 398.371H416.648ZM441.78 370.207C442.613 372.184 441.161 374.371 439.015 374.371H429.438C427.286 374.371 425.834 372.173 426.678 370.194L431.497 358.889C432.536 356.452 435.994 356.46 437.022 358.902L441.78 370.207Z" fill="white"/>
<path fill-rule="evenodd" clip-rule="evenodd" d="M455.956 397.434C453.547 395.064 450.303 393.736 446.923 393.736H421.22C417.795 393.736 414.505 395.077 412.056 397.471C410.875 398.626 409.984 400.03 409.098 401.428C408.994 401.592 408.89 401.756 408.786 401.919C405.336 407.32 398.738 409.54 392.934 406.867C388.665 404.901 385.867 400.767 385.17 396.159L382.662 402.044C379.629 409.156 382.937 417.38 390.05 420.413C397.162 423.445 405.386 420.137 408.419 413.024L414.666 398.371H453.635L459.778 412.965C462.778 420.092 470.987 423.437 478.113 420.438C485.24 417.438 488.585 409.229 485.585 402.103L482.892 395.703C482.313 400.515 479.448 404.874 475.011 406.892C469.183 409.542 462.578 407.274 459.158 401.831C459.07 401.691 458.982 401.55 458.894 401.41C458.017 400.006 457.134 398.593 455.956 397.434Z" fill="#4FEED6" fill-opacity="0.4"/>
<path d="M269.611 406.359C269.062 410.967 270.816 415.748 274.684 418.891C280.684 423.767 289.502 422.856 294.378 416.855L315.579 390.765C316.779 389.287 319.035 389.287 320.235 390.765L341.436 416.855C346.313 422.856 355.13 423.767 361.13 418.891C364.341 416.282 366.095 412.544 366.285 408.714C365.639 409.486 364.898 410.206 364.062 410.855C357.771 415.746 348.526 414.832 343.413 408.813L326.45 388.959C321.944 383.685 313.74 383.848 309.447 389.298L294.072 408.813C288.959 414.832 279.714 415.746 273.422 410.855C271.787 409.584 270.512 408.045 269.611 406.359Z" fill="#4FEED6" fill-opacity="0.4"/>
<path d="M251.62 384.271C249.096 387.951 246.106 391.366 242.703 394.443C236.901 399.691 230.011 403.855 222.426 406.696C214.841 409.537 206.711 411 198.5 411C190.289 411 182.159 409.537 174.574 406.696C166.989 403.855 160.099 399.691 154.297 394.443C150.911 391.381 147.934 387.986 145.419 384.327C145.762 385.309 146.134 386.283 146.533 387.247C149.358 394.08 153.499 400.289 158.722 405.52C163.945 410.752 170.147 414.903 176.974 417.735C183.801 420.568 191.119 422.026 198.509 422.026C205.9 422.026 213.218 420.568 220.045 417.735C226.872 414.903 233.074 410.752 238.297 405.52C243.519 400.289 247.661 394.08 250.486 387.247C250.893 386.265 251.271 385.272 251.62 384.271Z" fill="#4FEED6" fill-opacity="0.4"/>
<path fill-rule="evenodd" clip-rule="evenodd" d="M55.627 398.431L60.2366 409.524C66.6443 424.945 88.3998 425.193 95.1571 409.922L100.566 397.7C88.9301 411.222 67.5626 411.393 55.627 398.431Z" fill="#4FEED6" fill-opacity="0.4"/>
</svg>

